<?xml version="1.0" standalone="no"?>
<!DOCTYPE svg PUBLIC "-//W3C//DTD SVG 20010904//EN"
 "http://www.w3.org/TR/2001/REC-SVG-20010904/DTD/svg10.dtd">
<svg version="1.0" xmlns="http://www.w3.org/2000/svg"
 width="360.000000pt" height="360.000000pt" viewBox="0 0 360.000000 360.000000"
 preserveAspectRatio="xMidYMid meet">

<g transform="translate(0.000000,360.000000) scale(0.100000,-0.100000)"
fill="#000000" stroke="none">
<path d="M3335 2669 c-157 -86 -484 -249 -616 -307 -52 -23 -200 -82 -328
-132 -350 -135 -458 -186 -438 -206 4 -4 99 -36 212 -71 199 -61 206 -64 242
-105 72 -82 327 -338 338 -338 5 0 11 14 12 32 3 34 31 128 43 141 4 4 71 -10
149 -31 132 -37 142 -38 151 -22 5 10 41 139 80 286 95 359 116 418 220 629
50 99 90 184 90 188 0 16 -32 3 -155 -64z m108 17 c-4 -8 -157 -184 -339 -393
-182 -208 -363 -416 -401 -462 l-70 -84 39 -89 c22 -49 38 -91 36 -92 -1 -2
-73 70 -160 158 l-156 162 106 85 c59 47 128 100 153 117 64 43 639 483 724
553 76 63 80 66 68 45z m-78 -25 c-36 -33 -402 -319 -555 -433 -102 -77 -239
-181 -306 -233 l-121 -93 -202 63 c-112 35 -205 66 -207 68 -5 5 346 153 576
243 104 40 305 134 495 230 176 89 322 163 325 163 2 1 0 -3 -5 -8z m0 -141
c-25 -50 -59 -125 -76 -167 -37 -95 -149 -481 -179 -618 -11 -54 -22 -100 -23
-101 -1 -1 -78 20 -172 47 -93 27 -189 51 -212 55 -24 3 -43 10 -43 15 0 4 26
37 58 71 32 35 159 180 282 323 241 279 403 465 408 465 1 0 -18 -41 -43 -90z"/>
<path d="M1240 2037 c0 -8 29 -20 73 -30 89 -21 97 -21 97 -2 0 9 -20 20 -52
30 -64 19 -118 20 -118 2z"/>
<path d="M1075 2019 c-65 -25 -104 -54 -89 -69 12 -12 154 48 154 67 0 21 -14
21 -65 2z"/>
<path d="M1490 1937 c0 -16 101 -117 118 -117 25 0 11 30 -37 79 -48 49 -81
65 -81 38z"/>
<path d="M872 1863 c-50 -72 -70 -133 -43 -133 13 0 92 140 86 150 -10 17 -23
11 -43 -17z"/>
<path d="M1655 1730 c-3 -4 2 -34 10 -66 8 -32 15 -67 15 -77 0 -12 6 -17 18
-15 19 4 19 28 1 110 -10 44 -32 68 -44 48z"/>
<path d="M787 1634 c-4 -4 -7 -40 -7 -79 0 -52 4 -76 15 -85 21 -18 27 2 23
90 -3 67 -13 92 -31 74z"/>
<path d="M2496 1449 c-31 -36 -33 -49 -8 -49 18 0 62 49 62 70 0 20 -29 9 -54
-21z"/>
<path d="M1671 1448 c-46 -116 -51 -132 -42 -141 5 -5 14 -6 19 -3 13 8 52
110 52 136 0 29 -19 34 -29 8z"/>
<path d="M830 1352 c0 -21 48 -100 74 -121 12 -10 20 -11 27 -4 7 7 0 25 -24
57 -20 25 -38 55 -42 66 -8 25 -35 27 -35 2z"/>
<path d="M105 1340 c-8 -13 43 -80 61 -80 21 0 17 19 -12 57 -26 34 -38 40
-49 23z"/>
<path d="M2329 1284 c-61 -53 -67 -62 -45 -70 18 -7 126 81 126 102 0 25 -25
15 -81 -32z"/>
<path d="M1511 1159 c-41 -47 -51 -63 -41 -72 9 -9 24 1 66 46 53 56 67 87 41
87 -7 0 -37 -27 -66 -61z"/>
<path d="M243 1184 c-6 -17 2 -26 85 -91 26 -20 36 -23 45 -14 9 9 1 22 -38
57 -69 61 -84 69 -92 48z"/>
<path d="M2110 1131 c-60 -34 -80 -59 -55 -68 16 -5 140 71 140 86 0 25 -18
21 -85 -18z"/>
<path d="M1000 1147 c0 -14 115 -87 137 -87 31 0 8 30 -48 63 -66 39 -89 45
-89 24z"/>
<path d="M1861 1026 c-71 -20 -94 -37 -71 -51 16 -10 160 36 160 51 0 21 -12
21 -89 0z"/>
<path d="M1248 1034 c-11 -11 12 -34 33 -34 29 0 23 -14 -11 -27 -32 -12 -41
-43 -12 -43 9 0 35 11 57 24 27 17 49 23 67 19 20 -4 28 -1 28 8 -1 27 -25 46
-60 46 -19 0 -49 3 -65 7 -17 4 -33 4 -37 0z"/>
<path d="M460 1015 c0 -8 30 -30 69 -50 58 -29 71 -32 81 -20 9 11 -1 20 -59
49 -78 40 -91 43 -91 21z"/>
<path d="M1515 980 c-14 -22 10 -30 86 -30 72 0 79 2 79 20 0 18 -7 20 -79 20
-44 0 -83 -4 -86 -10z"/>
<path d="M710 905 c0 -16 62 -36 124 -38 30 -2 41 2 41 12 0 10 -21 19 -65 27
-86 17 -100 17 -100 -1z"/>
<path d="M1090 910 c-19 -5 -52 -12 -72 -15 -55 -9 -51 -35 5 -34 57 1 122 21
122 38 0 18 -12 21 -55 11z"/>
</g>
</svg>
